<?xml version="1.0" encoding="UTF-8" standalone="no"?>
<!-- Created with Inkscape (http://www.inkscape.org/) -->

<svg
   xmlns:dc="http://purl.org/dc/elements/1.1/"
   xmlns:cc="http://creativecommons.org/ns#"
   xmlns:rdf="http://www.w3.org/1999/02/22-rdf-syntax-ns#"
   xmlns:svg="http://www.w3.org/2000/svg"
   xmlns="http://www.w3.org/2000/svg"
   xmlns:sodipodi="http://sodipodi.sourceforge.net/DTD/sodipodi-0.dtd"
   xmlns:inkscape="http://www.inkscape.org/namespaces/inkscape"
   width="695.73145"
   height="800"
   id="svg3786"
   version="1.1"
   inkscape:version="0.48.4 r9939"
   sodipodi:docname="Джек Воробей детализовано.svg">
  <defs
     id="defs3788" />
  <sodipodi:namedview
     id="base"
     pagecolor="#ffffff"
     bordercolor="#666666"
     borderopacity="1.0"
     inkscape:pageopacity="0.0"
     inkscape:pageshadow="2"
     inkscape:zoom="0.24748737"
     inkscape:cx="233.85617"
     inkscape:cy="1021.2772"
     inkscape:document-units="px"
     inkscape:current-layer="layer1"
     showgrid="false"
     fit-margin-top="0"
     fit-margin-left="0"
     fit-margin-right="0"
     fit-margin-bottom="0"
     inkscape:window-width="1920"
     inkscape:window-height="1018"
     inkscape:window-x="-8"
     inkscape:window-y="-8"
     inkscape:window-maximized="1" />
  <metadata
     id="metadata3791">
    <rdf:RDF>
      <cc:Work
         rdf:about="">
        <dc:format>image/svg+xml</dc:format>
        <dc:type
           rdf:resource="http://purl.org/dc/dcmitype/StillImage" />
        <dc:title />
      </cc:Work>
    </rdf:RDF>
  </metadata>
  <g
     inkscape:label="Layer 1"
     inkscape:groupmode="layer"
     id="layer1"
     transform="translate(470.00445,-704.0066)">
    <g
       id="g3054"
       transform="matrix(0.41167324,0,0,0.41167324,-276.5162,884.84733)">
      <path
         sodipodi:nodetypes="sssssssssss"
         inkscape:connector-curvature="0"
         id="path2996"
         d="M 39.99555,145.2874 C 28.56698,235.76359 -2.78593,325.91743 5.70984,416.71597 c 7.18611,76.80152 37.75628,138.10798 65.71429,210.00001 18.71982,48.1367 39.93949,111.4265 74.28571,150 31.44415,35.3142 79.28455,56.764 125.71428,65.7143 37.0542,7.143 78.02565,-2.4421 111.42857,-20 43.61735,-22.9271 79.37445,-67.4848 104.28575,-110 48.46401,-82.7119 79.52671,-151.76048 98.57141,-245.71431 10.2798,-50.71367 -2.9213,-112.61608 -5.7143,-164.28571 -1.0332,-19.11472 5.7143,-38.00024 5.7143,-57.14286 0,-35.28954 -3.8095,-70.47619 -5.7143,-105.71429"
         style="fill:#7f4f39;fill-opacity:1;stroke:none" />
      <path
         inkscape:connector-curvature="0"
         id="path3812"
         d="m 183.32337,636.42328 c 8.08122,-2.5254 48.9924,-9.5965 48.9924,-9.5965 l 74.75129,6.061 45.45686,17.1725 -68.69037,36.3655 -56.06347,-17.1726 -41.41625,-34.8502"
         style="fill:#000000;stroke:none" />
      <path
         sodipodi:nodetypes="ccssc"
         inkscape:connector-curvature="0"
         id="path2998"
         d="M 268.56698,336.71597 C 247.7938,485.567 144.58463,502.74218 261.42412,538.14454 c -0.19606,-14.82204 -13.23086,-15.2087 -12.93298,-29.5368 0.50671,-24.37218 14.72612,-62.30577 15.93884,-85.97193 1.46327,-28.55568 3.10895,-56.92894 4.137,-85.91984 z"
         style="fill:#ffffff;fill-opacity:1;stroke:none" />
      <path
         sodipodi:nodetypes="cssccssc"
         inkscape:connector-curvature="0"
         id="path3000"
         d="m 359.99555,321.00168 c 15.2381,-6.19047 29.52066,-15.69255 45.71429,-18.57142 27.229,-4.84072 55.2858,-2.12326 82.8571,-4.28572 21.0227,-1.64884 41.90481,-4.76191 62.85721,-7.14286 -2.8572,-7.61905 -5.7143,-15.23809 -8.5714,-22.85714 -49.04771,4.76191 -98.52431,6.24959 -147.14291,14.28572 -9.6741,1.59903 -19.05245,7.09092 -25.71429,14.28571 -5.94798,6.42382 -6.66667,16.19047 -10,24.28571 z"
         style="fill:#000000;fill-opacity:1;stroke:none" />
      <path
         sodipodi:nodetypes="sscssscs"
         inkscape:connector-curvature="0"
         id="path3002"
         d="m 175.70984,242.43026 c 22.76975,6.3636 44.52883,17.92296 62.85714,32.85714 8.58643,6.99635 9.52381,20 14.28571,30 -8.57143,-7.61905 -15.63338,-17.38953 -25.71428,-22.85714 -18.42257,-9.9919 -38.09197,-18.40509 -58.57143,-22.85715 -23.80431,-5.17485 -49.65992,1.723 -72.85714,-5.71428 -10.13195,-3.24841 -13.80952,-16.19048 -20.71429,-24.28572 33.57143,4.28572 68.11942,3.74767 100.71429,12.85715 z"
         style="fill:#000000;fill-opacity:1;stroke:none" />
      <path
         sodipodi:nodetypes="ccc"
         inkscape:connector-curvature="0"
         id="path3782"
         d="m 367.67412,339.57312 c 33.89985,86.21524 144.76042,67.45128 159.91072,-2.05358 -53.3036,0.68453 -106.60715,1.36905 -159.91072,2.05358 z"
         style="fill:#724030;fill-opacity:1;stroke:none" />
      <path
         sodipodi:nodetypes="ccc"
         inkscape:connector-curvature="0"
         id="path3004"
         d="m 367.85269,339.57311 c 33.38784,-64.32789 95.49505,-30.82068 160.00005,-2.14286 -69.6413,49.64789 -108.84889,34.22443 -160.00005,2.14286 z"
         style="fill:#000000;stroke:none" />
      <path
         style="fill:#ffffff;stroke:none"
         d="m 377.80913,338.93924 c 29.23254,-56.32192 78.45221,-21.09001 140.08711,-1.87616 -65.443,34.87455 -85.7879,26.974 -140.08711,1.87616 z"
         id="path3006"
         inkscape:connector-curvature="0"
         sodipodi:nodetypes="ccc" />
      <path
         transform="matrix(0.93525758,0,0,0.98970698,36.26749,-52.499335)"
         d="m 427.85715,389.50504 c 0,14.2016 -11.19288,25.71428 -25,25.71428 -13.80712,0 -25,-11.51268 -25,-25.71428 0,-14.20161 11.19288,-25.71429 25,-25.71429 13.80712,0 25,11.51268 25,25.71429 z"
         sodipodi:ry="25.714285"
         sodipodi:rx="25"
         sodipodi:cy="389.50504"
         sodipodi:cx="402.85715"
         id="path3008"
         style="fill:#000000;stroke:none"
         sodipodi:type="arc" />
      <path
         sodipodi:type="arc"
         style="fill:#ffffff;stroke:none"
         id="path3010"
         sodipodi:cx="402.85715"
         sodipodi:cy="389.50504"
         sodipodi:rx="25"
         sodipodi:ry="25.714285"
         d="m 427.85715,389.50504 c 0,14.2016 -11.19288,25.71428 -25,25.71428 -13.80712,0 -25,-11.51268 -25,-25.71428 0,-14.20161 11.19288,-25.71429 25,-25.71429 13.80712,0 25,11.51268 25,25.71429 z"
         transform="matrix(0.39607151,0,0,0.23488035,270.60489,231.8987)" />
      <path
         transform="matrix(0.49607151,0,0,0.23488035,230.67632,247.61299)"
         d="m 427.85715,389.50504 c 0,14.2016 -11.19288,25.71428 -25,25.71428 -13.80712,0 -25,-11.51268 -25,-25.71428 0,-14.20161 11.19288,-25.71429 25,-25.71429 13.80712,0 25,11.51268 25,25.71429 z"
         sodipodi:ry="25.714285"
         sodipodi:rx="25"
         sodipodi:cy="389.50504"
         sodipodi:cx="402.85715"
         id="path3780"
         style="fill:#ffffff;stroke:none"
         sodipodi:type="arc" />
      <path
         sodipodi:nodetypes="ccc"
         inkscape:connector-curvature="0"
         id="path3786"
         d="m 98.56698,283.50168 137.5,40 c -47.89228,45.09625 -153.18468,54.08441 -137.5,-40 z"
         style="fill:#724030;fill-opacity:1;stroke:none" />
      <path
         sodipodi:nodetypes="ccc"
         inkscape:connector-curvature="0"
         id="path3788"
         d="m 98.56698,283.50168 c 18.64721,71.61844 71.1656,52.75239 137.5,40 -27.38183,-57.97046 -83.2062,-62.41074 -137.5,-40 z"
         style="fill:#000000;stroke:none" />
      <path
         style="fill:#ffffff;stroke:none"
         d="m 109.07333,286.60398 c 12.94041,46.29966 57.7901,42.37282 116.4873,34.44212 -23.19735,-49.03991 -70.49066,-53.4004 -116.4873,-34.44212 z"
         id="path3790"
         inkscape:connector-curvature="0"
         sodipodi:nodetypes="ccc" />
      <path
         transform="matrix(1.0512821,0,0,1.028777,0.69152,-63.617575)"
         d="m 153.57143,351.46933 c 0,13.7085 -9.35405,24.82143 -20.89286,24.82143 -11.5388,0 -20.89285,-11.11293 -20.89285,-24.82143 0,-13.7085 9.35405,-24.82143 20.89285,-24.82143 11.53881,0 20.89286,11.11293 20.89286,24.82143 z"
         sodipodi:ry="24.821428"
         sodipodi:rx="20.892857"
         sodipodi:cy="351.46933"
         sodipodi:cx="132.67857"
         id="path3792"
         style="fill:#000000;stroke:none"
         sodipodi:type="arc" />
      <path
         transform="matrix(0.33500345,0.05217296,-0.03096158,0.19880479,36.57135,191.59915)"
         d="m 427.85715,389.50504 c 0,14.2016 -11.19288,25.71428 -25,25.71428 -13.80712,0 -25,-11.51268 -25,-25.71428 0,-14.20161 11.19288,-25.71429 25,-25.71429 13.80712,0 25,11.51268 25,25.71429 z"
         sodipodi:ry="25.714285"
         sodipodi:rx="25"
         sodipodi:cy="389.50504"
         sodipodi:cx="402.85715"
         id="path3794"
         style="fill:#ffffff;stroke:none"
         sodipodi:type="arc" />
      <path
         sodipodi:nodetypes="ccccccccccccccccccccccccsccccccccsccccccccccccsccc"
         inkscape:connector-curvature="0"
         id="path3802"
         d="m 232.85269,720.28738 c 31.25986,8.0357 51.85701,8.0013 83.57143,3.5714 26.73503,38.4586 15.85532,61.3579 5,104.2858 140.86112,-32.4643 218.27353,-212.8017 266.95903,-379.94928 -22.7733,147.52398 -70.99101,257.50328 -163.3876,377.80638 -38.19866,42.9366 -68.53161,82.1986 -96.42857,131.4286 0.89984,15.9875 0.30891,15.8838 -7.14286,29.0258 0.11481,11.7177 -1.68699,13.5421 -8.03046,22.73452 1.69521,20.5842 2.19609,18.9161 -7.68382,35.3826 -0.79645,12.858 -1.70238,11.6524 -11.34192,19.5308 -0.82153,16.4561 -2.72369,15.7585 -12.9438,28.3263 l -8.57143,31.4286 -1.55179,20.1733 c 4.89242,5.2478 0.75375,5.98 -0.54774,8.1308 -9.31995,24.226 -8.60743,38.1943 -27.90047,52.4102 2.59276,-19.3434 12.83616,-35.6723 21.42858,-52.8572 -3.43657,-2.564 -0.87307,-5.1281 0.85468,-7.6921 l 3.43103,-30.8793 7.85714,-28.5714 c -2.17457,-15.3076 -3.81553,-14.7508 2.85715,-27.1429 -0.24427,-14.257 0.87046,-14.5129 8.57142,-25.7143 -4.87292,-19.2012 -6.78845,-13.8058 4.28572,-28.5714 -4.06164,-15.95392 -7.2748,-12.06102 2.14286,-23.57142 -4.30594,-19.55 -5.98379,-18.3223 1.42857,-35 -10.15022,-27.9904 -10.6115,-57.8604 -37.85715,-66.4286 -29.51599,-9.2823 -36.90647,23.5051 -52.14285,48.5714 8.17683,20.1246 3.30735,25.8166 -7.85715,42.8572 1.0281,24.1213 1.73098,23.5951 -9.87745,42.59712 1.74675,20.9426 2.4135,18.6781 -7.97969,35.26 1.94386,14.9221 2.29065,15.2956 -3.57143,27.8572 0.62108,9.0023 -3.4028,15.6757 -7.14285,23.5714 -0.28341,13.1528 -2.70883,14.4328 -10.71429,24.2857 -1.18426,13.6998 -5.80577,18.4138 -13.57143,29.2857 -5.40837,10.051 -17.79828,21.2168 -12.97962,31.4705 0.54009,1.1493 -0.56814,4.9251 -3.67211,4.5317 4.1072,21.4056 -10.1989,56.0278 -20.49112,81.1407 -4.25599,-30.2592 10.51938,-61.8258 16.36831,-81.9102 -0.41526,-2.9169 0.0426,-5.1773 1.30151,-5.8109 2.05217,-1.0329 0.62992,-3.6812 1.61589,-5.8503 2.44289,-22.4433 4.50505,-39.5839 12.85714,-60 -3.56918,-15.4797 -4.03368,-12.521 4.28572,-25 0.45017,-8.9378 3.53046,-16.3264 7.14285,-24.2858 -2.9982,-16.9124 -4.03938,-13.0929 5,-26.4285 -2.2989,-15.3994 0.13261,-20.8302 5,-35 -1.76277,-19.06082 -1.24494,-20.31422 6.42857,-36.42862 -10.34679,-22.6321 -10.8527,-33.2387 -1.93365,-54.6832 C 162.16435,823.32828 97.01579,757.99038 69.99555,676.71598 43.56117,597.20368 28.56698,514.33502 7.8527,433.14454 c 27.95894,63.85012 103.42591,372.74554 208.57142,371.42854 -9.33638,-38.7952 -4.67363,-53.6534 16.42857,-84.2857 z"
         style="fill:#000000;stroke:none" />
      <path
         sodipodi:nodetypes="cccc"
         inkscape:connector-curvature="0"
         id="path3808"
         d="m 292.41985,638.94868 -1.51523,9.5964 c 7.60914,3.4724 13.76828,3.9658 21.71828,3.0305 l 1.51523,-10.1015"
         style="fill:#808080;stroke:none" />
      <path
         sodipodi:nodetypes="cccc"
         inkscape:connector-curvature="0"
         id="path3810"
         d="m 251.50867,636.42328 -3.03046,13.132 c 3.55867,1.7428 20.49773,7.2356 22.22336,3.5355 0.50507,-2.0203 2.52538,-16.1624 2.52538,-16.1624"
         style="fill:#808080;stroke:none" />
      <path
         inkscape:connector-curvature="0"
         id="path3804"
         d="m 246.47323,618.74218 c -38.11288,2.0056 -60.11657,10.5038 -90.4375,13.125 35.09918,93.6178 143.5187,112.5071 234.875,18.1875 l -92.4375,-28.2813 c -27.6045,6.771 -24.91623,8.7673 -52,-3.0312 z m -25.28125,16.9375 c 13.02073,-0.2319 24.28219,1.4906 40.40625,6.3125 29.0533,-2.734 51.29088,3.5473 79.3125,9.0937 -58.44659,17.5347 -100.77813,12.4167 -146.46875,-13.1562 10.51222,-1.2791 18.93756,-2.1109 26.75,-2.25 z"
         style="fill:#550000;fill-opacity:1;stroke:none" />
      <path
         sodipodi:nodetypes="ccssc"
         inkscape:connector-curvature="0"
         id="path3798"
         d="m 174.28127,581.00168 c -32.18966,8.4099 -50.02354,28.0812 -69.28572,50.7143 52.82503,5.5664 102.39228,2.5629 136.40066,-21.3565 12.97995,-9.1294 35.38184,-19.9532 31.45648,-37.2149 -12.05033,-52.99112 -70.07352,-9.7445 -98.57142,7.8571 z"
         style="fill:#000000;stroke:none" />
      <path
         sodipodi:nodetypes="scccs"
         inkscape:connector-curvature="0"
         id="path3800"
         d="m 282.13841,574.57308 c -5.01553,40.239 52.38174,55.7937 92.14285,75.7143 20.76019,41.6597 48.15833,41.8651 87.85718,44.2857 -26.0641,-52.592 -53.37408,-75.1933 -99.28575,-101.4285 -32.40103,-30.8067 -75.72905,-58.56733 -80.71428,-18.5715 z"
         style="fill:#000000;stroke:none" />
      <path
         sodipodi:nodetypes="cscccccsscc"
         inkscape:connector-curvature="0"
         id="path3814"
         d="m 564.15085,200.54245 c 55.5783,382.12753 44.729,795.85763 98.995,1158.64505 5.1634,34.5193 25.0486,57.1762 58.5888,40.4061 17.9138,33.8362 15.0537,47.9813 50.5077,34.3452 29.5348,38.3239 27.2471,67.703 66.67,34.3452 43.8184,44.5551 42.9508,46.3333 82.8325,2.0203 31.4317,42.8798 30.2351,36.4648 58.5889,-4.0406 30.55895,36.2284 63.70095,57.1494 66.66995,12.1218 C 1067.9913,1160.0942 928.04435,830.79258 877.29815,561.16688 853.93655,437.04136 843.95505,286.55615 768.20175,243.97901 l -20.2031,-101.01526"
         style="fill:#000000;stroke:none" />
      <path
         sodipodi:nodetypes="ccccc"
         inkscape:connector-curvature="0"
         id="path3816"
         d="m 276.2574,1086.9514 8.08123,2.5254 c 7.69353,17.7867 6.35914,21.4859 -4.54569,35.8604 l -13.63706,-2.0203 c -14.6411,-20.3506 -7.37681,-21.445 10.10152,-36.3655 z"
         style="fill:#808000;stroke:none" />
      <path
         sodipodi:nodetypes="ccccc"
         inkscape:connector-curvature="0"
         id="path3818"
         d="m 253.52897,1129.6303 c 2.06107,-7.6537 24.31908,-10.3956 31.81981,-2.2728 l 1.01015,13.132 c -6.26465,6.8811 -25.93095,6.1593 -33.84011,0 z"
         style="fill:#550000;stroke:none" />
      <path
         sodipodi:nodetypes="ccccc"
         inkscape:connector-curvature="0"
         id="path3820"
         d="m 131.30051,1147.308 c 6.04575,-0.6411 8.43311,0.736 12.87945,4.2931 3.09705,6.2601 0.52814,15.9349 -6.56599,17.6777 l -9.34392,-1.2627 c -4.40978,-4.5465 -4.25507,-16.5404 3.03046,-20.7081 z"
         style="fill:#808000;fill-opacity:1;stroke:none" />
      <path
         sodipodi:nodetypes="ccccc"
         inkscape:connector-curvature="0"
         id="path3822"
         d="m 125.2396,1181.6532 7.57614,1.5152 c 10.9106,-2.1083 7.5371,-7.901 4.79823,-14.1421 l -9.72273,-1.0101 c -7.08625,4.513 -4.01746,5.6697 -2.65164,13.637 z"
         style="fill:#550000;fill-opacity:1;stroke:none" />
      <path
         sodipodi:nodetypes="cccsc"
         inkscape:connector-curvature="0"
         id="path3824"
         d="m 745.35275,777.07308 c 15.62,-8.3273 12.5818,-6.6113 29.2857,-1.7857 l 8.9285,43.9286 c 6.2947,7.0815 -32.3982,15.8734 -34.2857,6.0714 -2.2326,-11.5943 -3.9285,-48.2143 -3.9285,-48.2143 z"
         style="fill:#550000;fill-opacity:1;stroke:none" />
      <path
         sodipodi:nodetypes="ccccccsc"
         inkscape:connector-curvature="0"
         id="path3826"
         d="m 743.92415,834.93028 19.6428,-8.9286 30.7143,2.5 15.3572,54.2857 -6.0715,9.6429 -50.7142,7.1428 -8.2143,-4.2857 c -2.5528,-1.3319 -0.7143,-60.3571 -0.7143,-60.3571 z"
         style="fill:#332a15;fill-opacity:1;stroke:none" />
      <path
         inkscape:connector-curvature="0"
         id="path3828"
         d="m 763.56695,825.99218 -8.5625,3.9062 c 5.4605,3.1616 11.4063,6.4688 11.4063,6.4688 l 10.5625,-9.2813 -13.4063,-1.0937 z m 10,58.9375 -12.2187,13.4687 30.5312,-4.3125 -18.3125,-9.1562 z"
         style="fill:#000000;stroke:none" />
      <path
         transform="matrix(0.98757931,-0.15712129,0.15712129,0.98757931,-142.19036,82.752525)"
         d="m 808.9286,1035.755 c 0,7.9884 -7.51522,14.4643 -16.78572,14.4643 -9.27049,0 -16.78571,-6.4759 -16.78571,-14.4643 0,-7.9884 7.51522,-14.4643 16.78571,-14.4643 9.2705,0 16.78572,6.4759 16.78572,14.4643 z"
         sodipodi:ry="14.464286"
         sodipodi:rx="16.785715"
         sodipodi:cy="1035.755"
         sodipodi:cx="792.14288"
         id="path3838"
         style="fill:#550000;fill-opacity:1;stroke:none"
         sodipodi:type="arc" />
      <path
         sodipodi:nodetypes="sssss"
         inkscape:connector-curvature="0"
         id="path3836"
         d="m 765.70985,919.57308 7.1429,34.6429 c 3.5402,17.1704 37.8636,21.2275 42.8571,-3.5714 l -7.5,-39.2858 c -3.8549,-20.1923 -47.7271,-17.1372 -42.5,8.2143 z"
         style="fill:#550000;fill-opacity:1;stroke:none" />
      <path
         sodipodi:nodetypes="ccccccccccccccccccccccc"
         inkscape:connector-curvature="0"
         id="path3842"
         d="m 806.78125,995.28748 c -28.1843,12.74352 -10.0926,29.33972 4.6429,53.21432 -19.1662,25.0796 -19.7497,55.3615 3.2143,84.2857 -10.1977,21.9418 -16.7657,25.9798 1.7857,40.3571 -1.6185,9.6159 -0.4012,13.1522 3.5714,21.4286 -3.1414,4.8616 -0.9794,10.6262 -0.3571,16.0714 -2.4922,10.8051 -1.824,11.3521 2.8571,20.7143 -1.9021,5.2083 -1.0171,7.7262 1.0714,12.5 -2.3406,6.4318 -3.3157,12.902 -3.9285,19.6429 -2.9798,6.4571 -0.2587,12.01 1.4285,18.5714 l 7.7674,3.9063 11.2404,-9.6818 c 7.4429,-5.6289 8.5729,-10.2667 9.9208,-14.9388 7.3555,4.8554 20.364,5.432 22.8572,-5.7143 6.4158,8.3285 4.6937,2.7624 8.2142,-6.4286 17.2039,6.1882 11.45,-15.3154 9.2858,-26.7857 0.3839,-11.1758 2.2674,-12.453 -3.9286,-20.7143 3.6027,-15.4504 5.5028,-14.6723 -0.3572,-27.8571 -1.9775,-12.8264 0.2487,-17.1648 -7.8571,-26.4286 2.5655,-9.4029 1.8416,-16.9623 -0.3571,-26.0714 1.3011,-8.9454 -1.1148,-9.3991 -7.1429,-15.7143 0.9715,-39.6193 -11.3352,-72.8541 -44.2857,-69.2857 10.5811,-28.3111 4.1969,-47.65932 -19.6429,-41.07142 z"
         style="fill:#332a15;fill-opacity:1;stroke:none" />
      <path
         transform="translate(8.56698,-52.789065)"
         d="m 824.537,1339.498 c 0,2.0921 -2.37436,3.7881 -5.3033,3.7881 -2.92893,0 -5.3033,-1.696 -5.3033,-3.7881 0,-2.092 2.37437,-3.788 5.3033,-3.788 2.92894,0 5.3033,1.696 5.3033,3.788 z"
         sodipodi:ry="3.7880721"
         sodipodi:rx="5.3033009"
         sodipodi:cy="1339.498"
         sodipodi:cx="819.2337"
         id="path3844"
         style="fill:#808000;fill-opacity:1;stroke:none"
         sodipodi:type="arc" />
      <path
         transform="translate(8.56698,-52.789065)"
         d="m 824.53704,1349.7258 c 0,3.975 -2.48743,7.1974 -5.55584,7.1974 -3.0684,0 -5.55584,-3.2224 -5.55584,-7.1974 0,-3.9749 2.48744,-7.1973 5.55584,-7.1973 3.06841,0 5.55584,3.2224 5.55584,7.1973 z"
         sodipodi:ry="7.1973367"
         sodipodi:rx="5.5558391"
         sodipodi:cy="1349.7258"
         sodipodi:cx="818.9812"
         id="path3846"
         style="fill:#60553f;fill-opacity:1;stroke:none"
         sodipodi:type="arc" />
      <path
         transform="translate(8.56698,-52.789065)"
         d="m 822.01162,1360.9637 c 0,1.6737 -1.80904,3.0305 -4.04061,3.0305 -2.23157,0 -4.04061,-1.3568 -4.04061,-3.0305 0,-1.6736 1.80904,-3.0304 4.04061,-3.0304 2.23157,0 4.04061,1.3568 4.04061,3.0304 z"
         sodipodi:ry="3.0304577"
         sodipodi:rx="4.0406103"
         sodipodi:cy="1360.9637"
         sodipodi:cx="817.97101"
         id="path3848"
         style="fill:#60553f;fill-opacity:1;stroke:none"
         sodipodi:type="arc" />
      <path
         transform="translate(8.56698,-52.789065)"
         d="m 821.25399,1368.6661 c 0,2.0224 -1.52638,3.6618 -3.40926,3.6618 -1.88289,0 -3.40927,-1.6394 -3.40927,-3.6618 0,-2.0223 1.52638,-3.6618 3.40927,-3.6618 1.88288,0 3.40926,1.6395 3.40926,3.6618 z"
         sodipodi:ry="3.661803"
         sodipodi:rx="3.4092648"
         sodipodi:cy="1368.6661"
         sodipodi:cx="817.84473"
         id="path3850"
         style="fill:#60553f;fill-opacity:1;stroke:none"
         sodipodi:type="arc" />
      <path
         transform="translate(8.56698,-52.789065)"
         d="m 837.66898,1336.2151 c 0,3.6263 -2.82663,6.566 -6.31345,6.566 -3.48682,0 -6.31345,-2.9397 -6.31345,-6.566 0,-3.6263 2.82663,-6.566 6.31345,-6.566 3.48682,0 6.31345,2.9397 6.31345,6.566 z"
         sodipodi:ry="6.5659914"
         sodipodi:rx="6.3134532"
         sodipodi:cy="1336.2151"
         sodipodi:cx="831.35553"
         id="path3852"
         style="fill:#808000;fill-opacity:1;stroke:none"
         sodipodi:type="arc" />
      <path
         transform="translate(8.56698,-52.789065)"
         d="m 838.1741,1349.0945 c 0,1.6737 -2.31783,3.0304 -5.17703,3.0304 -2.8592,0 -5.17703,-1.3567 -5.17703,-3.0304 0,-1.6737 2.31783,-3.0305 5.17703,-3.0305 2.8592,0 5.17703,1.3568 5.17703,3.0305 z"
         sodipodi:ry="3.0304577"
         sodipodi:rx="5.177032"
         sodipodi:cy="1349.0945"
         sodipodi:cx="832.99707"
         id="path3854"
         style="fill:#60553f;fill-opacity:1;stroke:none"
         sodipodi:type="arc" />
      <path
         transform="translate(8.56698,-52.789065)"
         d="m 839.68931,1359.8274 c 0,2.7197 -2.2613,4.9245 -5.05076,4.9245 -2.78946,0 -5.05076,-2.2048 -5.05076,-4.9245 0,-2.7197 2.2613,-4.9245 5.05076,-4.9245 2.78946,0 5.05076,2.2048 5.05076,4.9245 z"
         sodipodi:ry="4.9244938"
         sodipodi:rx="5.0507627"
         sodipodi:cy="1359.8274"
         sodipodi:cx="834.63855"
         id="path3856"
         style="fill:#60553f;fill-opacity:1;stroke:none"
         sodipodi:type="arc" />
      <path
         transform="translate(8.56698,-52.789065)"
         d="m 860.64999,1318.5374 c 0,1.9526 -2.6005,3.5355 -5.80838,3.5355 -3.20787,0 -5.80837,-1.5829 -5.80837,-3.5355 0,-1.9527 2.6005,-3.5356 5.80837,-3.5356 3.20788,0 5.80838,1.5829 5.80838,3.5356 z"
         sodipodi:ry="3.5355339"
         sodipodi:rx="5.8083773"
         sodipodi:cy="1318.5374"
         sodipodi:cx="854.84161"
         id="path3858"
         style="fill:#808000;fill-opacity:1;stroke:none"
         sodipodi:type="arc" />
      <path
         transform="matrix(0.97777778,0,0,1.12,26.312,-214.22584)"
         d="m 866.71086,1342.1497 c 0,1.7434 -2.54397,3.1567 -5.68211,3.1567 -3.13814,0 -5.68211,-1.4133 -5.68211,-3.1567 0,-1.7435 2.54397,-3.1568 5.68211,-3.1568 3.13814,0 5.68211,1.4133 5.68211,3.1568 z"
         sodipodi:ry="3.1567266"
         sodipodi:rx="5.6821079"
         sodipodi:cy="1342.1497"
         sodipodi:cx="861.02875"
         id="path3862"
         style="fill:#808000;fill-opacity:1;stroke:none"
         sodipodi:type="arc" />
      <path
         transform="translate(8.56698,-52.789065)"
         d="m 866.71086,1349.2207 c 0,2.1618 -2.26131,3.9143 -5.05076,3.9143 -2.78946,0 -5.05077,-1.7525 -5.05077,-3.9143 0,-2.1618 2.26131,-3.9143 5.05077,-3.9143 2.78945,0 5.05076,1.7525 5.05076,3.9143 z"
         sodipodi:ry="3.9143412"
         sodipodi:rx="5.0507627"
         sodipodi:cy="1349.2207"
         sodipodi:cx="861.6601"
         id="path3864"
         style="fill:#60553f;fill-opacity:1;stroke:none"
         sodipodi:type="arc" />
      <path
         transform="translate(8.56698,-52.789065)"
         d="m 873.52939,1315.0018 c 0,1.8132 -1.75251,3.283 -3.91434,3.283 -2.16183,0 -3.91434,-1.4698 -3.91434,-3.283 0,-1.8131 1.75251,-3.283 3.91434,-3.283 2.16183,0 3.91434,1.4699 3.91434,3.283 z"
         sodipodi:ry="3.2829957"
         sodipodi:rx="3.9143412"
         sodipodi:cy="1315.0018"
         sodipodi:cx="869.61505"
         id="path3866"
         style="fill:#808000;fill-opacity:1;stroke:none"
         sodipodi:type="arc" />
      <path
         transform="translate(8.56698,-52.789065)"
         d="m 877.31746,1325.1034 c 0,3.4868 -2.65703,6.3134 -5.93465,6.3134 -3.27761,0 -5.93464,-2.8266 -5.93464,-6.3134 0,-3.4868 2.65703,-6.3135 5.93464,-6.3135 3.27762,0 5.93465,2.8267 5.93465,6.3135 z"
         sodipodi:ry="6.3134532"
         sodipodi:rx="5.9346461"
         sodipodi:cy="1325.1034"
         sodipodi:cx="871.38281"
         id="path3868"
         style="fill:#808000;fill-opacity:1;stroke:none"
         sodipodi:type="arc" />
      <path
         transform="translate(8.81952,-53.294145)"
         d="m 876.30736,1335.0786 c 0,1.604 -1.69598,2.9042 -3.78807,2.9042 -2.0921,0 -3.78807,-1.3002 -3.78807,-2.9042 0,-1.6039 1.69597,-2.9042 3.78807,-2.9042 2.09209,0 3.78807,1.3003 3.78807,2.9042 z"
         sodipodi:ry="2.9041886"
         sodipodi:rx="3.7880721"
         sodipodi:cy="1335.0786"
         sodipodi:cx="872.51929"
         id="path3870"
         style="fill:#808000;fill-opacity:1;stroke:none"
         sodipodi:type="arc" />
      <path
         transform="translate(8.31444,-54.304295)"
         d="m 877.57003,1342.276 c 0,1.6737 -1.80904,3.0305 -4.04061,3.0305 -2.23157,0 -4.04061,-1.3568 -4.04061,-3.0305 0,-1.6737 1.80904,-3.0305 4.04061,-3.0305 2.23157,0 4.04061,1.3568 4.04061,3.0305 z"
         sodipodi:ry="3.0304577"
         sodipodi:rx="4.0406103"
         sodipodi:cy="1342.276"
         sodipodi:cx="873.52942"
         id="path3872"
         style="fill:#808000;fill-opacity:1;stroke:none"
         sodipodi:type="arc" />
      <path
         transform="matrix(1,0,0,1.1666667,8.56698,-275.78621)"
         d="m 866.71087,1331.1643 c 0,3.7658 -3.84422,6.8185 -8.5863,6.8185 -4.74208,0 -8.58629,-3.0527 -8.58629,-6.8185 0,-3.7658 3.84421,-6.8185 8.58629,-6.8185 4.74208,0 8.5863,3.0527 8.5863,6.8185 z"
         sodipodi:ry="6.8185296"
         sodipodi:rx="8.586297"
         sodipodi:cy="1331.1643"
         sodipodi:cx="858.12457"
         id="path3860"
         style="fill:#60553f;fill-opacity:1;stroke:none"
         sodipodi:type="arc" />
      <path
         sodipodi:nodetypes="csssssscccsscssscccccccc"
         inkscape:connector-curvature="0"
         id="path3874"
         d="m -61.43302,65.287405 c -36.66667,43.333325 -83.60141,79.747265 -110,129.999995 -14.8968,28.35776 4.34301,66.40056 -8.57143,95.71428 -18.23853,41.39857 -60.957,68.23039 -81.42857,108.57143 -12.72123,25.0683 -3.23018,57.66992 -15.71429,82.85715 -15.48962,31.251 -64.89091,60.41411 -75.71428,93.57142 -20.25272,62.0441 -4.8294,121.5152 -14.28572,182.1429 -7.36935,47.2473 -61.42857,72.3809 -102.85714,100 22.97016,-9.9556 47.6588,-15.615 67.14286,-34.2858 -45.96948,37.5083 -47.59107,68.2162 -44.28572,120.0001 0.29372,-72.8255 63.61666,-87.452 104.28572,-132.8572 13.33516,-14.8881 7.5894,-57.5501 13.57143,-82.1429 6.8802,-28.2852 20.23809,-45.4761 27.85714,-73.5714 1.42857,30 13.2441,61.3332 4.28571,90 -11.06968,35.423 -51.98373,56.9668 -61.42857,92.8572 -8.29757,31.5307 10.35429,64.5562 11.42857,97.1428 1.78894,54.2647 -11.50591,182.36372 -1.42857,235.71432 20.36348,54.8951 36.31112,103.734 85.71429,72.8572 7.21986,48.6515 11.11844,52.9641 52.85714,38.5714 18.99399,69.4064 26.91366,72.2721 84.28571,44.2857 14.68229,59.5301 -2.50636,116.5433 54.28572,72.8571 66.22207,88.4888 70.6113,72.6994 95.71429,-17.1428 C 57.55621,1075.2022 32.3871,738.57598 11.42413,457.07311 -0.54382,338.96745 26.43922,222.73458 57.13841,116.71597"
         style="fill:#000000;stroke:none" />
      <path
         sodipodi:nodetypes="ccscccccccc"
         inkscape:connector-curvature="0"
         id="path3876"
         d="M -65.71873,42.430265 -83.57587,170.2874 c 0,0 317.85714,43.57143 334.99999,46.42857 17.14286,2.85714 328.57143,31.42857 328.57143,31.42857 l 193.5714,-1.42857 c -4.3429,-3.12987 3.9621,-7.68831 5.2414,-10.81818 3.3673,-6.01532 0.5555,-6.01049 -4.0406,-10.6066 6.8712,-12.4313 1.6468,-12.41638 -6.061,-24.74874 11.3815,-12.66009 3.2016,-16.49274 -3.5355,-32.32488 12.8555,-41.67138 11.5677,-69.415705 -8.0812,-107.076165 z"
         style="fill:#550000;fill-opacity:1;stroke:none" />
      <path
         sodipodi:nodetypes="cssc"
         inkscape:connector-curvature="0"
         id="path3878"
         d="M -65.71873,46.715975 -362.86159,715.28738 c -18.65924,41.9833 16.83319,56.7084 35.71428,15.7143 L -10.00445,42.430265"
         style="fill:#e6e1ca;fill-opacity:1;stroke:none" />
      <path
         sodipodi:nodetypes="czzzzzzzzzzzzzzzzzzc"
         inkscape:connector-curvature="0"
         id="path3880"
         d="m -64.164,51.039875 c -12.79527,41.07954 -29.09865,83.388295 -38.3858,123.238605 -9.28715,39.85031 -6.85621,74.73747 -17.17259,115.15739 -10.31638,40.41992 -35.30361,91.05118 -44.44672,126.26907 -9.14311,35.21789 -4.84924,59.95324 -10.10152,83.84266 -5.25228,23.88942 -10.09086,18.64952 -21.2132,58.58885 -11.12234,39.93933 -35.17865,134.14403 -45.45687,180.81733 -10.27822,46.6732 -10.09999,53.3582 -16.16244,98.9949 -6.06245,45.6368 -17.83576,135.0199 -20.20305,174.75652 -2.36729,39.7366 2.69726,49.7059 6.06091,62.6294 3.36365,12.9235 7.08306,14.5682 13.13199,11.1117 6.04893,-3.4565 7.22721,-8.203 8.08122,-23.2335 0.85401,-15.0305 -6.4065,-22.6154 -3.03046,-65.65992 3.37604,-43.0445 10.92365,-124.4778 23.23351,-191.9291 12.30986,-67.4512 38.38481,-162.9672 50.50763,-212.132 12.12282,-49.16476 17.15355,-53.76564 22.22335,-82.8325 5.0698,-29.06686 -2.13005,-53.98296 8.08122,-90.91373 10.21127,-36.93077 40.65707,-86.23257 52.52794,-128.28937 11.87087,-42.0568 8.38084,-81.49987 18.18274,-122.22846 9.8019,-40.72859 26.9374,-80.812205 40.40611,-121.218305"
         style="fill:#322b1a;fill-opacity:1;stroke:none" />
      <path
         sodipodi:nodetypes="cccc"
         inkscape:connector-curvature="0"
         id="path3882"
         d="M -34.29016,64.573115 C -121.42341,263.5692 -198.9629,466.12289 -307.14731,654.57308 c 2.28923,5.9973 -1.14611,16.447 17.14286,10 115.59086,-191.0202 197.65911,-400.00991 290,-602.857105"
         style="fill:#2b2611;fill-opacity:1;stroke:none" />
      <path
         sodipodi:nodetypes="csssc"
         inkscape:connector-curvature="0"
         id="path3884"
         d="m 37.13841,66.715975 -2.14286,67.142855 c -0.14589,4.57133 6.14605,8.7939 10.71429,8.57142 12.61308,-0.61427 29.93864,-25.96724 30.71429,-38.57143 l 2.85714,-46.428565"
         style="fill:#e6e1ca;fill-opacity:1;stroke:none" />
      <path
         sodipodi:nodetypes="cccsc"
         inkscape:connector-curvature="0"
         id="path3888"
         d="m 79.99555,-327.56975 c 209.41242,-149.0215 440.31319,-85.54778 564.2857,115.71429 l -1.4285,135.714295 c 0,0 -582.8572,-17.14286 -582.8572,-27.142865 0,-10 20,-224.28572 20,-224.28572 z"
         style="fill:#514b37;fill-opacity:1;stroke:none" />
      <path
         sodipodi:nodetypes="csssscsssssssssc"
         inkscape:connector-curvature="0"
         id="path3886"
         d="m -361.43302,-158.99832 c 61.37648,45.13973 172.58073,124.612385 267.5958,211.771365 7.27383,6.67241 40.01317,0.70043 79.87257,9.7293 59.07867,13.38237 137.426,41.584335 201.10306,45.642195 77.18411,4.91861 202.72051,-28.649795 253.65233,-32.429455 C 703.81135,56.196295 949.02245,117.21063 1219.9956,2.430265 1069.0432,-272.80784 773.42075,-362.38115 510.01044,-409.31521 c -79.6268,-14.18779 -226.70049,4.43402 -248.58632,24.60261 -33.81503,31.16178 -19.67935,94.00019 -50,128.57143 -38.14764,43.49548 -140.45221,9.64444 -100,-42.85715 29.33534,-38.07336 67.05137,-60.15025 74.28572,-101.42857 3.5841,-20.45043 -29.47481,-34.01521 -50,-37.14286 -33.2875,-5.07238 -68.83159,1.54535 -100,14.28572 -35.82334,14.64312 -60.81351,48.99099 -95.71429,65.71428 -57.1989,27.40781 -123.81946,33.69672 -178.57143,65.71429 -62.77887,36.7115 -135.69193,55.84846 -122.85714,132.85714 z"
         style="fill:#d7d0ab;fill-opacity:1;stroke:none" />
      <path
         inkscape:connector-curvature="0"
         id="path3890"
         d="m 440.66074,-414.28907 c -75.98294,0.19731 -162.83564,14.43606 -179.25001,29.5625 -33.81503,31.16178 -19.67935,94.02251 -50,128.59375 -28.79978,32.83716 -94.13148,21.57491 -107.03125,-8.5 l 61.78125,330.812505 c 0,0 -33.24763,19.00359 -53.3125,29.6875 25.62002,6.059245 50.93285,10.793355 74.28125,12.281245 77.18411,4.91861 202.72443,-28.657835 253.65626,-32.437495 C 703.80635,56.192145 949.03135,117.21005 1220.0045,2.429685 1069.052,-272.80842 773.41475,-362.38626 510.00444,-409.32032 c -19.9067,-3.54695 -44.0161,-5.03452 -69.3437,-4.96875 z"
         style="fill:#322b1a;fill-opacity:1;stroke:none" />
      <path
         transform="translate(8.56698,-52.789065)"
         d="m -90.408657,589.45978 c 0,22.45515 -16.055253,40.65864 -35.860413,40.65864 -19.80516,0 -35.86042,-18.20349 -35.86042,-40.65864 0,-22.45515 16.05526,-40.65864 35.86042,-40.65864 19.80516,0 35.860413,18.20349 35.860413,40.65864 z"
         sodipodi:ry="40.658642"
         sodipodi:rx="35.860416"
         sodipodi:cy="589.45978"
         sodipodi:cx="-126.26907"
         id="path3895"
         style="fill:#808000;fill-opacity:1;stroke:none"
         sodipodi:type="arc" />
      <path
         transform="translate(11.59744,-51.778915)"
         d="m -19.697976,759.16541 c 0,5.43944 -6.218585,9.84898 -13.889598,9.84898 -7.671013,0 -13.889598,-4.40954 -13.889598,-9.84898 0,-5.43945 6.218585,-9.84899 13.889598,-9.84899 7.671013,0 13.889598,4.40954 13.889598,9.84899 z"
         sodipodi:ry="9.8489876"
         sodipodi:rx="13.889598"
         sodipodi:cy="759.16541"
         sodipodi:cx="-33.587574"
         id="path3897"
         style="fill:#808000;fill-opacity:1;stroke:none"
         sodipodi:type="arc" />
      <path
         transform="translate(8.56698,-52.789065)"
         d="m 1.5152302,845.28088 c 0,12.27362 -11.1934526,22.22336 -25.0012762,22.22336 -13.807823,0 -25.001276,-9.94974 -25.001276,-22.22336 0,-12.27362 11.193453,-22.22335 25.001276,-22.22335 13.8078236,0 25.0012762,9.94973 25.0012762,22.22335 z"
         sodipodi:ry="22.223356"
         sodipodi:rx="25.001276"
         sodipodi:cy="845.28088"
         sodipodi:cx="-23.486046"
         id="path3901"
         style="fill:#000080;stroke:none"
         sodipodi:type="arc" />
      <path
         transform="matrix(1,0,0,1.2266667,8.56698,-267.51183)"
         d="m 13.131984,928.36597 c 0,10.46047 -11.5326482,18.94036 -25.75889,18.94036 -14.226243,0 -25.758891,-8.47989 -25.758891,-18.94036 0,-10.46048 11.532648,-18.94036 25.758891,-18.94036 14.2262418,0 25.75889,8.47988 25.75889,18.94036 z"
         sodipodi:ry="18.940361"
         sodipodi:rx="25.75889"
         sodipodi:cy="928.36597"
         sodipodi:cx="-12.626906"
         id="path3903"
         style="fill:#550000;fill-opacity:1;stroke:none"
         sodipodi:type="arc" />
      <path
         transform="translate(8.56698,-52.789065)"
         d="m -29.799499,840.98773 c 0,2.64999 -1.922108,4.79823 -4.293149,4.79823 -2.37104,0 -4.293148,-2.14824 -4.293148,-4.79823 0,-2.64998 1.922108,-4.79822 4.293148,-4.79822 2.371041,0 4.293149,2.14824 4.293149,4.79822 z"
         sodipodi:ry="4.7982244"
         sodipodi:rx="4.2931485"
         sodipodi:cy="840.98773"
         sodipodi:cx="-34.092648"
         id="path3905"
         style="fill:#ffffff;stroke:none"
         sodipodi:type="arc" />
      <path
         transform="translate(8.56698,-52.789065)"
         d="m -15.657365,827.09814 c 0,2.51052 -2.148238,4.54569 -4.798224,4.54569 -2.649986,0 -4.798225,-2.03517 -4.798225,-4.54569 0,-2.51051 2.148239,-4.54568 4.798225,-4.54568 2.649986,0 4.798224,2.03517 4.798224,4.54568 z"
         sodipodi:ry="4.5456862"
         sodipodi:rx="4.7982244"
         sodipodi:cy="827.09814"
         sodipodi:cx="-20.455589"
         id="path3907"
         style="fill:#ffffff;stroke:none"
         sodipodi:type="arc" />
      <path
         transform="translate(8.56698,-52.789065)"
         d="m -13.131983,850.58423 c 0,2.64998 -2.82663,4.79822 -6.313453,4.79822 -3.486824,0 -6.313454,-2.14824 -6.313454,-4.79822 0,-2.64999 2.82663,-4.79823 6.313454,-4.79823 3.486823,0 6.313453,2.14824 6.313453,4.79823 z"
         sodipodi:ry="4.7982244"
         sodipodi:rx="6.3134532"
         sodipodi:cy="850.58423"
         sodipodi:cx="-19.445436"
         id="path3911"
         style="fill:#ffffff;stroke:none"
         sodipodi:type="arc" />
      <path
         transform="matrix(1,0,0,0.68421052,8.56698,212.70628)"
         d="m -2.0203052,835.93701 c 0,2.64999 -1.6959776,4.79823 -3.7880721,4.79823 -2.0920944,0 -3.7880721,-2.14824 -3.7880721,-4.79823 0,-2.64998 1.6959777,-4.79822 3.7880721,-4.79822 2.0920945,0 3.7880721,2.14824 3.7880721,4.79822 z"
         sodipodi:ry="4.7982244"
         sodipodi:rx="3.7880721"
         sodipodi:cy="835.93701"
         sodipodi:cx="-5.8083773"
         id="path3913"
         style="fill:#ffffff;stroke:none"
         sodipodi:type="arc" />
      <path
         transform="translate(8.56698,-52.789065)"
         d="m 0,921.29486 c 0,3.48682 -3.0527597,6.31345 -6.8185296,6.31345 -3.7657704,0 -6.8185294,-2.82663 -6.8185294,-6.31345 0,-3.48682 3.052759,-6.31345 6.8185294,-6.31345 C -3.0527597,914.98141 0,917.80804 0,921.29486 z"
         sodipodi:ry="6.3134532"
         sodipodi:rx="6.8185296"
         sodipodi:cy="921.29486"
         sodipodi:cx="-6.8185296"
         id="path3917"
         style="fill:#ffffff;stroke:none"
         sodipodi:type="arc" />
      <path
         transform="translate(8.56698,-52.789065)"
         d="m -12.121831,937.20477 c 0,2.23157 -3.05276,4.04061 -6.81853,4.04061 -3.76577,0 -6.81853,-1.80904 -6.81853,-4.04061 0,-2.23156 3.05276,-4.04061 6.81853,-4.04061 3.76577,0 6.81853,1.80905 6.81853,4.04061 z"
         sodipodi:ry="4.0406103"
         sodipodi:rx="6.8185296"
         sodipodi:cy="937.20477"
         sodipodi:cx="-18.940361"
         id="path3919"
         style="fill:#ffffff;stroke:none"
         sodipodi:type="arc" />
      <path
         transform="translate(8.56698,-52.789065)"
         d="m -16.162441,910.68829 c 0,2.37104 -2.374369,4.29315 -5.303301,4.29315 -2.928932,0 -5.303301,-1.92211 -5.303301,-4.29315 0,-2.37104 2.374369,-4.29315 5.303301,-4.29315 2.928932,0 5.303301,1.92211 5.303301,4.29315 z"
         sodipodi:ry="4.2931485"
         sodipodi:rx="5.3033009"
         sodipodi:cy="910.68829"
         sodipodi:cx="-21.465742"
         id="path3921"
         style="fill:#ffffff;stroke:none"
         sodipodi:type="arc" />
      <path
         transform="translate(8.56698,-52.789065)"
         d="m -30.809653,925.33551 c 0,3.20788 -1.356782,5.80838 -3.030458,5.80838 -1.673675,0 -3.030458,-2.6005 -3.030458,-5.80838 0,-3.20788 1.356783,-5.80838 3.030458,-5.80838 1.673676,0 3.030458,2.6005 3.030458,5.80838 z"
         sodipodi:ry="5.8083773"
         sodipodi:rx="3.0304577"
         sodipodi:cy="925.33551"
         sodipodi:cx="-33.840111"
         id="path3923"
         style="fill:#ffffff;stroke:none"
         sodipodi:type="arc" />
      <rect
         transform="matrix(0.99557978,-0.09391961,0.09391961,0.99557978,0,0)"
         ry="33.739376"
         rx="4.2941022"
         y="814.12463"
         x="-110.5012"
         height="27.779196"
         width="44.446712"
         id="rect3925"
         style="fill:#ffffff;stroke:none" />
      <rect
         style="fill:#550000;stroke:none"
         id="rect3927"
         width="29.305874"
         height="44.424194"
         x="-65.900375"
         y="719.43066"
         rx="11.378518"
         ry="53.95565"
         transform="matrix(0.99954332,-0.0302185,0.04350392,0.99905326,0,0)" />
      <path
         inkscape:connector-curvature="0"
         id="path4078"
         d="m 19.28573,-226.25782 a 5.0005,5.0005 0 0 0 -4.53125,5.84375 l 5.09375,31.71875 -17.5,19.1875 a 5.0005,5.0005 0 1 0 7.375,6.75 l 12.15625,-13.3125 2.46875,15.28125 a 5.0013914,5.0013914 0 1 0 9.875,-1.59375 l -3.71875,-23.125 21.65625,-23.71875 a 5.0005,5.0005 0 0 0 -4.03125,-8.4375 5.0005,5.0005 0 0 0 -3.34375,1.6875 l -16.3125,17.875 -3.84375,-23.875 a 5.0005,5.0005 0 0 0 -5.34375,-4.28125 z"
         style="font-size:medium;font-style:normal;font-variant:normal;font-weight:normal;font-stretch:normal;text-indent:0;text-align:start;text-decoration:none;line-height:normal;letter-spacing:normal;word-spacing:normal;text-transform:none;direction:ltr;block-progression:tb;writing-mode:lr-tb;text-anchor:start;baseline-shift:baseline;color:#000000;fill:#000000;fill-opacity:1;stroke:none;stroke-width:10;marker:none;visibility:visible;display:inline;overflow:visible;enable-background:accumulate;font-family:Sans;-inkscape-font-specification:Sans" />
    </g>
  </g>
</svg>
